<svg xmlns="http://www.w3.org/2000/svg" viewBox="0 0 673.99 674"><defs><style>.cls-1{fill:#ff6700;}.cls-2{fill:#fcfcfc;}</style></defs><g id="Layer_2" data-name="Layer 2"><g id="Layer_6" data-name="Layer 6"><path class="cls-1" d="M337,0C150.88,0,0,150.87,0,337S150.88,674,337,674,674,523.11,674,337,523.11,0,337,0ZM250.5,359.07A26.49,26.49,0,0,1,224,385.55H60A26.48,26.48,0,0,1,33.5,359.07V315A26.46,26.46,0,0,1,60,288.55H224A26.47,26.47,0,0,1,250.5,315ZM288.45,60A26.46,26.46,0,0,1,314.92,33.5H359A26.47,26.47,0,0,1,385.45,60V224A26.49,26.49,0,0,1,359,250.5H314.92A26.49,26.49,0,0,1,288.45,224ZM379,337a42,42,0,1,1-42-42A42,42,0,0,1,379,337Zm6.55,277a26.49,26.49,0,0,1-26.47,26.49H315A26.49,26.49,0,0,1,288.54,614V450A26.47,26.47,0,0,1,315,423.5h44.05A26.46,26.46,0,0,1,385.54,450ZM614,385.44H450A26.48,26.48,0,0,1,423.5,359V314.92A26.48,26.48,0,0,1,450,288.44H614a26.49,26.49,0,0,1,26.48,26.48V359A26.48,26.48,0,0,1,614,385.44Z"/><path class="cls-2" d="M250.5,315v44A26.49,26.49,0,0,1,224,385.55H60A26.48,26.48,0,0,1,33.5,359.07V315A26.46,26.46,0,0,1,60,288.55H224A26.47,26.47,0,0,1,250.5,315Z"/><circle class="cls-2" cx="336.99" cy="337" r="42"/><path class="cls-2" d="M385.45,60V224A26.49,26.49,0,0,1,359,250.5H314.92A26.49,26.49,0,0,1,288.45,224V60A26.46,26.46,0,0,1,314.92,33.5H359A26.47,26.47,0,0,1,385.45,60Z"/><path class="cls-2" d="M640.5,314.92V359A26.48,26.48,0,0,1,614,385.44H450A26.48,26.48,0,0,1,423.5,359V314.92A26.48,26.48,0,0,1,450,288.44H614A26.49,26.49,0,0,1,640.5,314.92Z"/><path class="cls-2" d="M385.54,450V614a26.49,26.49,0,0,1-26.47,26.49H315A26.49,26.49,0,0,1,288.54,614V450A26.47,26.47,0,0,1,315,423.5h44.05A26.46,26.46,0,0,1,385.54,450Z"/></g></g></svg>