<?xml version="1.0" encoding="utf-8"?>
<!-- Generator: Adobe Illustrator 26.3.1, SVG Export Plug-In . SVG Version: 6.00 Build 0)  -->
<svg version="1.1" id="Layer_1" xmlns="http://www.w3.org/2000/svg" xmlns:xlink="http://www.w3.org/1999/xlink" x="0px" y="0px"
	 width="600px" height="170px" viewBox="0 0 600 170" style="enable-background:new 0 0 600 170;" xml:space="preserve">
<style type="text/css">
	.st0{fill:#F9F9F9;}
	.st1{fill:url(#SVGID_1_);}
	.st2{fill:url(#SVGID_00000086656501278928355160000013420383080230663584_);}
	.st3{fill:url(#SVGID_00000078743171472274483870000014531906073522884502_);}
	.st4{fill:url(#SVGID_00000146471519044275429980000012229684710233462162_);}
	.st5{fill:url(#SVGID_00000081613860594430573070000004612561426469698951_);}
	.st6{fill:url(#SVGID_00000067227607490998084920000008937117183830522000_);}
	.st7{fill:#F4F4F4;}
	.st8{fill:#00F76A;}
	.st9{fill:url(#SVGID_00000007427193170889101350000006992138433543860158_);}
</style>
<g>
	<path class="st0" d="M95.336,94.342c0,9.654-2.654,16.921-7.96,21.801c-5.308,4.88-12.733,7.32-22.28,7.32h-16V66.342h17.68
		c5.812,0,10.853,1.068,15.12,3.2c4.266,2.134,7.573,5.267,9.92,9.4C94.162,83.076,95.336,88.21,95.336,94.342z M86.296,94.582
		c0-7.199-1.747-12.492-5.24-15.88c-3.494-3.386-8.44-5.08-14.84-5.08h-8.48v42.561h6.96
		C79.096,116.183,86.296,108.982,86.296,94.582z"/>
	<path class="st0" d="M123.655,79.542c5.386,0,9.426,1.188,12.12,3.56c2.692,2.374,4.04,6.094,4.04,11.16v29.2h-6l-1.68-6h-0.32
		c-1.868,2.347-3.828,4.066-5.88,5.159c-2.054,1.093-4.894,1.641-8.52,1.641c-3.894,0-7.12-1.053-9.68-3.16
		c-2.56-2.106-3.84-5.4-3.84-9.88c0-4.373,1.652-7.707,4.96-10c3.306-2.293,8.4-3.547,15.28-3.76l7.36-0.24v-2.4
		c0-3.146-0.72-5.372-2.16-6.68c-1.44-1.307-3.468-1.96-6.08-1.96c-2.188,0-4.294,0.319-6.32,0.96
		c-2.028,0.64-3.974,1.414-5.84,2.32l-2.72-6.16c2.026-1.066,4.36-1.96,7-2.681C118.015,79.902,120.775,79.542,123.655,79.542z
		 M125.655,102.902c-4.907,0.214-8.307,1.027-10.2,2.439c-1.894,1.414-2.84,3.4-2.84,5.961c0,2.24,0.667,3.867,2,4.88
		c1.333,1.014,3.066,1.52,5.2,1.52c3.306,0,6.066-0.933,8.28-2.8c2.213-1.866,3.32-4.666,3.32-8.4v-3.76L125.655,102.902z"/>
	<path class="st0" d="M157.334,63.942c1.28,0,2.4,0.374,3.36,1.12c0.96,0.747,1.44,2,1.44,3.76c0,1.708-0.48,2.948-1.44,3.72
		c-0.96,0.774-2.08,1.16-3.36,1.16c-1.388,0-2.547-0.386-3.48-1.16c-0.934-0.772-1.4-2.013-1.4-3.72c0-1.76,0.466-3.013,1.4-3.76
		C154.787,64.316,155.946,63.942,157.334,63.942z M161.494,80.342v43.121h-8.48V80.342H161.494z"/>
	<path class="st0" d="M183.414,123.463h-8.48V62.662h8.48V123.463z"/>
	<path class="st0" d="M190.292,80.342h9.12l8.96,24.48c0.692,1.867,1.292,3.668,1.8,5.4c0.506,1.733,0.893,3.428,1.16,5.08h0.32
		c0.266-1.387,0.68-3.013,1.24-4.881c0.56-1.865,1.186-3.76,1.88-5.68l8.48-24.4h9.12l-18.48,48.96c-1.548,4.16-3.614,7.426-6.2,9.8
		c-2.587,2.372-5.96,3.56-10.12,3.56c-1.333,0-2.48-0.067-3.44-0.199c-0.96-0.135-1.788-0.28-2.48-0.44v-6.72
		c0.533,0.105,1.226,0.212,2.08,0.319c0.853,0.106,1.732,0.16,2.64,0.16c2.452,0,4.426-0.707,5.92-2.12
		c1.492-1.414,2.666-3.268,3.52-5.56l1.76-4.64L190.292,80.342z"/>
</g>
<g>
	<g>
		<g>
			<linearGradient id="SVGID_1_" gradientUnits="userSpaceOnUse" x1="236.7861" y1="93.4624" x2="458.1426" y2="93.4624">
				<stop  offset="0" style="stop-color:#FF0000"/>
				<stop  offset="1" style="stop-color:#FFB000"/>
			</linearGradient>
			<path class="st1" d="M273.586,107.862c0,5.067-1.84,9.067-5.52,12c-3.68,2.934-8.774,4.4-15.28,4.4c-6.293,0-11.627-1.066-16-3.2
				v-9.6c2.4,1.066,5.04,2.039,7.92,2.92c2.88,0.88,5.812,1.319,8.8,1.319c3.413,0,5.92-0.666,7.52-2c1.6-1.332,2.4-3.093,2.4-5.28
				c0-2.399-1.014-4.292-3.04-5.68c-2.027-1.386-4.987-2.906-8.88-4.56c-2.348-1.013-4.587-2.213-6.72-3.601
				c-2.134-1.386-3.894-3.146-5.28-5.279c-1.388-2.133-2.08-4.853-2.08-8.16c0-4.906,1.72-8.732,5.16-11.48
				c3.44-2.746,8.04-4.12,13.8-4.12c3.04,0,5.88,0.32,8.52,0.96s5.292,1.547,7.96,2.72l-3.28,8.24c-2.4-1.012-4.68-1.812-6.84-2.4
				c-2.16-0.586-4.387-0.88-6.68-0.88c-2.774,0-4.88,0.627-6.32,1.88c-1.44,1.254-2.16,2.867-2.16,4.84c0,1.6,0.4,2.934,1.2,4
				c0.8,1.067,2.04,2.054,3.72,2.96c1.68,0.907,3.853,1.947,6.52,3.12c3.04,1.334,5.652,2.72,7.84,4.16
				c2.187,1.439,3.853,3.174,5,5.199C273.013,102.37,273.586,104.876,273.586,107.862z"/>
			
				<linearGradient id="SVGID_00000015354347282122438680000006838828815981255045_" gradientUnits="userSpaceOnUse" x1="236.7861" y1="93.4624" x2="458.1426" y2="93.4624">
				<stop  offset="0" style="stop-color:#FF0000"/>
				<stop  offset="1" style="stop-color:#FFB000"/>
			</linearGradient>
			<path style="fill:url(#SVGID_00000015354347282122438680000006838828815981255045_);" d="M300.385,116.183
				c1.227,0,2.441-0.12,3.64-0.36c1.2-0.24,2.307-0.52,3.32-0.84v7.52c-1.067,0.48-2.454,0.895-4.16,1.24
				c-1.707,0.347-3.494,0.521-5.36,0.521c-2.454,0-4.694-0.414-6.72-1.24c-2.027-0.826-3.627-2.253-4.8-4.28
				c-1.174-2.026-1.76-4.853-1.76-8.479V87.702h-5.84v-4.399l6.4-3.521l3.2-9.2h6.32v9.52h12.32v7.6h-12.32v22.48
				c0,2.027,0.533,3.533,1.6,4.52C297.292,115.689,298.678,116.183,300.385,116.183z"/>
			
				<linearGradient id="SVGID_00000088835016747138824690000004868103329002204861_" gradientUnits="userSpaceOnUse" x1="236.7861" y1="93.4624" x2="458.1426" y2="93.4624">
				<stop  offset="0" style="stop-color:#FF0000"/>
				<stop  offset="1" style="stop-color:#FFB000"/>
			</linearGradient>
			<path style="fill:url(#SVGID_00000088835016747138824690000004868103329002204861_);" d="M338.945,79.303
				c0.692,0,1.452,0.027,2.279,0.08c0.826,0.054,1.533,0.16,2.12,0.32l-0.88,9.36c-0.534-0.106-1.174-0.2-1.92-0.28
				c-0.747-0.08-1.414-0.12-2-0.12c-2.134,0-4.134,0.44-6,1.32c-1.867,0.88-3.374,2.24-4.521,4.08c-1.147,1.84-1.72,4.147-1.72,6.92
				v22.48h-10.08v-43.36h7.761l1.439,7.52h0.48c1.279-2.292,3.04-4.252,5.279-5.88C333.425,80.116,336.011,79.303,338.945,79.303z"
				/>
			
				<linearGradient id="SVGID_00000065069007287029780750000005696770270896632233_" gradientUnits="userSpaceOnUse" x1="236.7861" y1="93.4624" x2="458.1426" y2="93.4624">
				<stop  offset="0" style="stop-color:#FF0000"/>
				<stop  offset="1" style="stop-color:#FFB000"/>
			</linearGradient>
			<path style="fill:url(#SVGID_00000065069007287029780750000005696770270896632233_);" d="M356.545,63.382
				c1.546,0,2.866,0.388,3.96,1.16c1.092,0.774,1.64,2.147,1.64,4.12c0,1.974-0.548,3.36-1.64,4.16c-1.094,0.8-2.414,1.2-3.96,1.2
				c-1.548,0-2.868-0.4-3.96-1.2c-1.094-0.8-1.641-2.186-1.641-4.16c0-1.972,0.547-3.346,1.641-4.12
				C353.677,63.77,354.997,63.382,356.545,63.382z M361.585,80.103v43.36h-10.08v-43.36H361.585z"/>
			
				<linearGradient id="SVGID_00000119101517318684767970000008474421896201735059_" gradientUnits="userSpaceOnUse" x1="236.7861" y1="93.4624" x2="458.1426" y2="93.4624">
				<stop  offset="0" style="stop-color:#FF0000"/>
				<stop  offset="1" style="stop-color:#FFB000"/>
			</linearGradient>
			<path style="fill:url(#SVGID_00000119101517318684767970000008474421896201735059_);" d="M384.623,91.543
				c0,1.387-0.054,2.854-0.16,4.399c-0.107,1.548-0.213,3.014-0.319,4.399h0.24c0.64-0.959,1.439-2.052,2.399-3.279
				c0.96-1.227,1.866-2.32,2.72-3.28l12.801-13.68h11.439l-17.359,18.72l18.479,24.641h-11.76l-13.44-18.561l-5.04,4.16v14.4h-10
				V62.662h10V91.543z"/>
			
				<linearGradient id="SVGID_00000039850138515200666300000006178386097346289824_" gradientUnits="userSpaceOnUse" x1="236.7861" y1="93.4624" x2="458.1426" y2="93.4624">
				<stop  offset="0" style="stop-color:#FF0000"/>
				<stop  offset="1" style="stop-color:#FFB000"/>
			</linearGradient>
			<path style="fill:url(#SVGID_00000039850138515200666300000006178386097346289824_);" d="M439.263,79.303
				c5.812,0,10.413,1.733,13.801,5.2c3.386,3.467,5.079,8.293,5.079,14.48v5.12h-28.64c0.106,3.947,1.2,7,3.28,9.16
				c2.08,2.159,4.96,3.239,8.64,3.239c2.772,0,5.28-0.279,7.521-0.84c2.239-0.56,4.532-1.372,6.88-2.439v8.08
				c-2.134,1.014-4.348,1.76-6.641,2.24c-2.293,0.479-5.04,0.72-8.239,0.72c-4.214,0-7.96-0.812-11.24-2.44
				c-3.28-1.626-5.84-4.092-7.68-7.4c-1.841-3.306-2.761-7.412-2.761-12.319c0-7.413,1.84-13.066,5.521-16.96
				C428.463,81.25,433.289,79.303,439.263,79.303z M439.263,86.742c-2.72,0-4.92,0.867-6.6,2.6c-1.68,1.734-2.654,4.309-2.92,7.721
				h18.64c-0.054-2.986-0.813-5.453-2.28-7.4C444.636,87.716,442.355,86.742,439.263,86.742z"/>
		</g>
	</g>
</g>
<path class="st0" d="M547.23,72.075c-3.072,14.249-14.318,25.495-28.567,28.567v7.133c18.117-3.247,32.453-17.583,35.709-35.7
	H547.23z M474.342,72.075h-7.133c3.256,18.117,17.583,32.444,35.7,35.7v-7.142C488.661,97.562,477.414,86.315,474.342,72.075z
	 M518.663,20.613v7.133c14.248,3.072,25.495,14.318,28.567,28.576h7.142C551.116,38.196,536.78,23.86,518.663,20.613z
	 M467.209,56.322h7.133c3.072-14.248,14.319-25.495,28.567-28.567v-7.141C484.792,23.869,470.465,38.196,467.209,56.322z"/>
<circle class="st7" cx="510.79" cy="64.195" r="4.376"/>
<rect x="506.851" y="88.409" class="st8" width="7.877" height="26.145"/>
<path class="st0" d="M537.699,49.898l-18.318,12.244c-0.49-2.083-1.724-3.877-3.405-5.094l18.318-12.244L537.699,49.898z"/>
<path class="st0" d="M509.876,72.986l-7.299,14.861l-5.496-2.704l7.317-14.861C505.806,71.769,507.723,72.758,509.876,72.986z"/>
<rect x="506.851" y="13.836" transform="matrix(-1 -8.983093e-11 8.983093e-11 -1 1021.5792 53.8167)" class="st8" width="7.877" height="26.145"/>
<linearGradient id="SVGID_00000059280853338311200100000008409060845074529181_" gradientUnits="userSpaceOnUse" x1="-8775.0996" y1="-9941.2832" x2="-8674.3828" y2="-9941.2832" gradientTransform="matrix(-1 0 0 -1 -8213.9512 -9877.0889)">
	<stop  offset="0" style="stop-color:#FF0000"/>
	<stop  offset="1" style="stop-color:#FFB000"/>
</linearGradient>
<path style="fill:url(#SVGID_00000059280853338311200100000008409060845074529181_);" d="M505.101,64.195
	c0-3.142,2.547-5.689,5.689-5.689s5.689,2.547,5.689,5.689s-2.547,5.689-5.689,5.689S505.101,67.337,505.101,64.195z
	 M486.575,68.133v-7.877h-26.145v7.877H486.575z M535.004,60.256v7.877h26.145v-7.877H535.004z M506.851,39.981h7.877V13.836h-7.877
	V39.981z M514.728,88.409h-7.877v26.145h7.877V88.409z"/>
</svg>
