<svg xmlns="http://www.w3.org/2000/svg" viewBox="0 0 1920 1080"><defs><style>.cls-1{fill:#fff;}.cls-2{fill:#ff6700;}</style></defs><g id="Layer_6" data-name="Layer 6"><path class="cls-1" d="M265,439.59h37.52q27.24,0,43.56,9.64t24.69,28.69q8.37,19.05,8.37,42.24,0,24.4-7.52,43.51a69.88,69.88,0,0,1-23,30.83q-15.46,11.71-44.05,11.72H265Zm27.59,22.1V584.12h11.5q24.11,0,35-16.66T350,523q0-61.28-45.87-61.27Z"/><path class="cls-1" d="M427.49,517.84,403,514.79q2.44-16.48,15.18-25.64T449.4,480q16.58,0,26.51,6.65t12.5,15.81q2.55,9.15,2.55,27.71v42q0,25.51,2.2,34.06H469.11q-1.58-6.72-1.58-20.51Q456,609.27,432.92,609.27q-15.6,0-25-9.58t-9.44-26.07q0-20.13,13.83-31.86T460.21,530c1.14,0,2.93.05,5.36.13v-5q0-13.18-3.95-19.9t-14.18-6.71Q430.78,498.55,427.49,517.84Zm38.08,28.32c-3.24-.33-5.72-.49-7.42-.49q-33.11,0-33.1,26,0,18.93,16.43,18.92,9.6,0,16.85-10.25t7.24-28.2Z"/><path class="cls-1" d="M545.65,466.32H518.92v-27h26.73Zm-26.12,16.61h25.39V606.22H519.53Z"/><path class="cls-1" d="M575.07,439.59h25.39V606.22H575.07Z"/><path class="cls-1" d="M615.23,482.93h25.58l21.46,84.68,22-84.68h23l-40,131.1q-4.4,14.28-8.05,21.12a29,29,0,0,1-10.38,11q-6.7,4.21-17.33,4.22a52.79,52.79,0,0,1-13.06-1.71V628.43a52,52,0,0,0,8.91.86q9.88,0,14-4.82t8.91-22.4Z"/><path class="cls-2" d="M820.07,476.82,796.51,485q-4.15-13.25-10.93-19.56t-18.49-6.32q-10.87,0-16.79,6.43a21.12,21.12,0,0,0-5.92,14.75q0,9.19,6.66,14.63t26.55,13q17,6.46,26.12,12.33a44.39,44.39,0,0,1,20.51,38.45,48.62,48.62,0,0,1-14.84,35.77q-14.82,14.78-41.56,14.77-46.14,0-57.13-46.63l24.66-7q6.46,30.77,33.69,30.76,13.31,0,20.2-6.9a23.1,23.1,0,0,0,6.9-17,22.54,22.54,0,0,0-4.76-13.8q-4.75-6.35-23.68-13.55-20-7.56-28.87-12.82a45.27,45.27,0,0,1-21.3-38.81q0-19.91,13.85-33.45t36.81-13.55Q808.84,436.54,820.07,476.82Z"/><path class="cls-2" d="M851.19,450.82l22.95-2.2v34.31H897.7v20.5H874.14V557.8q0,14.38.74,19.08a11.93,11.93,0,0,0,4.39,7.67q3.66,3,12.21,3a70.19,70.19,0,0,0,10.25-.85v20.37a90.9,90.9,0,0,1-19,2.21q-14.28,0-21.85-5.56a24.5,24.5,0,0,1-9.65-15.07q-2.07-9.52-2.07-29V503.43h-16v-20.5h16.72Z"/><path class="cls-2" d="M914.79,482.93h22.34v27.58q10.29-30.15,30.87-30.15a34.29,34.29,0,0,1,4.65.37v26.49a45.82,45.82,0,0,0-5.14-.37q-27.33,0-27.33,36.62v62.75H914.79Z"/><path class="cls-2" d="M1009,466.32H982.3v-27H1009Zm-26.12,16.61h25.39V606.22H982.91Z"/><path class="cls-2" d="M1038.33,439.59h25.39v98.48l39.8-55.14h25.14l-31.86,42.45,35.4,80.84h-27.45l-24.66-61.79L1063.72,567v39.19h-25.39Z"/><path class="cls-2" d="M1233.15,548.36h-69.7q0,24.95,6.76,33.28t17,8.34q17,0,21.55-23l23.31,3.05q-9.15,39.2-45.65,39.19-22.34,0-35.65-16t-13.3-46.88q0-31.74,13.43-49.07T1186.76,480q15.75,0,26.49,8.66a46.12,46.12,0,0,1,15.14,22.77Q1232.78,525.53,1233.15,548.36Zm-26-17.22q0-32.59-21.24-32.59-19.9,0-21.85,32.59Z"/><path class="cls-2" d="M1408.2,531.75v16.5a5.35,5.35,0,0,1-5.35,5.36H1282.38a5.36,5.36,0,0,1-5.35-5.36v-16.5a5.36,5.36,0,0,1,5.35-5.36h120.47A5.35,5.35,0,0,1,1408.2,531.75Z"/><path class="cls-2" d="M1671,531.75v16.5a5.36,5.36,0,0,1-5.36,5.36H1545.16a5.36,5.36,0,0,1-5.36-5.36v-16.5a5.36,5.36,0,0,1,5.36-5.36h120.46A5.36,5.36,0,0,1,1671,531.75Z"/><path class="cls-2" d="M1487.61,611.15V731.62a5.37,5.37,0,0,1-5.36,5.36h-16.49a5.37,5.37,0,0,1-5.36-5.36V611.15a5.36,5.36,0,0,1,5.36-5.35h16.49A5.36,5.36,0,0,1,1487.61,611.15Z"/><path class="cls-2" d="M1487.61,348.38V468.85a5.36,5.36,0,0,1-5.36,5.35h-16.49a5.36,5.36,0,0,1-5.36-5.35V348.38a5.37,5.37,0,0,1,5.36-5.36h16.49A5.37,5.37,0,0,1,1487.61,348.38Z"/><path class="cls-1" d="M1409.34,388.49a164,164,0,0,0-99,131.58h31.88a132.53,132.53,0,0,1,111.88-111.51V376.69A162.53,162.53,0,0,0,1409.34,388.49Zm-67,171.44h-31.9a163.94,163.94,0,0,0,143.67,142.63V670.69A132.52,132.52,0,0,1,1342.31,559.93Zm261.79,0a132.54,132.54,0,0,1-110.17,110.52v31.92A164,164,0,0,0,1636,559.93Zm20.24-84.16a163.92,163.92,0,0,0-130.41-98.88V408.8a132.52,132.52,0,0,1,110.28,111.27h31.88A162.13,162.13,0,0,0,1624.34,475.77Z"/><path class="cls-1" d="M1536.72,498.18l-40,34.67a24.63,24.63,0,0,0-12.48-15.07l39.64-34.38a4.14,4.14,0,0,1,5.84.41l7.39,8.53A4.14,4.14,0,0,1,1536.72,498.18Z"/><path class="cls-1" d="M1463.82,562.24,1412.5,619a2.58,2.58,0,0,1-3.65.18l-9.13-8.25a2.59,2.59,0,0,1-.19-3.66l51.6-57A24.6,24.6,0,0,0,1463.82,562.24Z"/><path class="cls-1" d="M1583.46,596.43a125.15,125.15,0,0,1-6.53,11.16,2.26,2.26,0,0,1-.35-.17l-20.45-11.81a2.92,2.92,0,0,1-1.08-4l3.57-6.18a2.92,2.92,0,0,1,4-1.07l20.44,11.8A2.7,2.7,0,0,1,1583.46,596.43Z"/><path class="cls-1" d="M1583.94,483.77a4,4,0,0,1-.34.23l-20.45,11.81a2.94,2.94,0,0,1-4-1.08l-3.56-6.17a2.94,2.94,0,0,1,1.07-4l20.45-11.81a2.17,2.17,0,0,1,.41-.19A124.23,124.23,0,0,1,1583.94,483.77Z"/><path class="cls-1" d="M1541.17,435.9a2.26,2.26,0,0,1-.17.35l-11.81,20.45a2.93,2.93,0,0,1-4,1.08l-6.17-3.57a3,3,0,0,1-1.08-4l11.81-20.44a3.77,3.77,0,0,1,.26-.39A123.91,123.91,0,0,1,1541.17,435.9Z"/><path class="cls-1" d="M1428.31,453.68l-6.18,3.57a2.93,2.93,0,0,1-4-1.07l-11.8-20.45a2.22,2.22,0,0,1-.2-.41,124.23,124.23,0,0,1,11.22-6.43,4,4,0,0,1,.23.34l11.8,20.45A2.91,2.91,0,0,1,1428.31,453.68Z"/><path class="cls-1" d="M1391.35,487.65l-3.56,6.17a3,3,0,0,1-4,1.08l-20.45-11.81a3.62,3.62,0,0,1-.38-.26,119.35,119.35,0,0,1,6.53-11.17,2.92,2.92,0,0,1,.36.17l20.44,11.81A2.93,2.93,0,0,1,1391.35,487.65Z"/><path class="cls-1" d="M1389.76,594.7l-20.45,11.8a2.22,2.22,0,0,1-.41.2,124.23,124.23,0,0,1-6.43-11.22,4,4,0,0,1,.34-.23l20.44-11.81a2.93,2.93,0,0,1,4,1.08l3.57,6.18A2.93,2.93,0,0,1,1389.76,594.7Z"/><path class="cls-1" d="M1428.47,629.05l-11.8,20.45a3.28,3.28,0,0,1-.27.38,122,122,0,0,1-11.17-6.53,3,3,0,0,1,.18-.36l11.81-20.45a2.93,2.93,0,0,1,4-1.07l6.18,3.57A2.93,2.93,0,0,1,1428.47,629.05Z"/><path class="cls-1" d="M1540.28,643.93a123,123,0,0,1-11.23,6.43c-.07-.11-.15-.22-.22-.34L1517,629.57a2.93,2.93,0,0,1,1.08-4l6.17-3.57a2.94,2.94,0,0,1,4,1.07l11.81,20.45A2.17,2.17,0,0,1,1540.28,643.93Z"/><path class="cls-2" d="M1490.32,539.63a17.11,17.11,0,0,1-17.12,17.11,17.41,17.41,0,0,1-4-.46,17.12,17.12,0,1,1,21.06-17.82C1490.3,538.84,1490.32,539.23,1490.32,539.63Z"/></g></svg>